<?xml version="1.0" encoding="UTF-8" standalone="no"?>
<svg
   xmlns:dc="http://purl.org/dc/elements/1.1/"
   xmlns:cc="http://creativecommons.org/ns#"
   xmlns:rdf="http://www.w3.org/1999/02/22-rdf-syntax-ns#"
   xmlns:svg="http://www.w3.org/2000/svg"
   xmlns="http://www.w3.org/2000/svg"
   xmlns:sodipodi="http://sodipodi.sourceforge.net/DTD/sodipodi-0.dtd"
   xmlns:inkscape="http://www.inkscape.org/namespaces/inkscape"
   viewBox="0 0 535 122"
   width="256"
   height="60"
   version="1.1"
   id="svg46"
   sodipodi:docname="sonarcloud-black.svg"
   inkscape:version="1.0.1 (3bc2e813f5, 2020-09-07)">
  <metadata
     id="metadata52">
    <rdf:RDF>
      <cc:Work
         rdf:about="">
        <dc:format>image/svg+xml</dc:format>
        <dc:type
           rdf:resource="http://purl.org/dc/dcmitype/StillImage" />
      </cc:Work>
    </rdf:RDF>
  </metadata>
  <defs
     id="defs50" />
  <sodipodi:namedview
     pagecolor="#ffffff"
     bordercolor="#666666"
     borderopacity="1"
     objecttolerance="10"
     gridtolerance="10"
     guidetolerance="10"
     inkscape:pageopacity="0"
     inkscape:pageshadow="2"
     inkscape:window-width="2560"
     inkscape:window-height="1377"
     id="namedview48"
     showgrid="false"
     inkscape:zoom="4.7421875"
     inkscape:cx="128"
     inkscape:cy="30"
     inkscape:window-x="-8"
     inkscape:window-y="-8"
     inkscape:window-maximized="1"
     inkscape:current-layer="svg46" />
  <path
     d="m523.1 120h-510.7c-5.7 0-10.4-4.7-10.4-10.4v-97.2c0-5.7 4.7-10.4 10.4-10.4h510.7c5.7 0 10.4 4.7 10.4 10.4v97.2c0 5.7-4.7 10.4-10.4 10.4z"
     fill="#070706"
     id="path2" />
  <g
     fill="#ffffff"
     id="g24">
    <path
       d="m 135,89.6 c 2.4,1.5 7.5,3.2 11.4,3.2 4,0 5.6,-1.4 5.6,-3.6 0,-2.2 -1.3,-3.2 -6.2,-4.9 -8.8,-2.9 -12.1,-7.7 -12,-12.7 0,-7.9 6.8,-13.9 17.2,-13.9 4.9,0 9.4,1.1 12,2.4 l -2.3,9.1 c -1.9,-1 -5.5,-2.4 -9.2,-2.4 -3.2,0 -5,1.3 -5,3.5 0,2 1.6,3 6.8,4.9 8.1,2.8 11.4,6.8 11.5,13.1 0,7.9 -6.2,13.7 -18.4,13.7 -5.5,0 -10.5,-1.2 -13.7,-2.9 z"
       id="path4" />
    <path
       d="m 211.1,79.4 c 0,15.5 -11,22.6 -22.4,22.6 -12.4,0 -21.9,-8.1 -21.9,-21.8 0,-13.7 9,-22.4 22.6,-22.4 13.1,0 21.7,8.9 21.7,21.6 z m -30.6,0.5 c 0,7.3 3,12.7 8.7,12.7 5.1,0 8.4,-5.1 8.4,-12.7 0,-6.3 -2.4,-12.7 -8.4,-12.7 -6.4,-0.1 -8.7,6.4 -8.7,12.7 z"
       id="path6" />
    <path
       d="m 215.8,72.2 c 0,-5.3 -0.2,-9.8 -0.3,-13.5 h 11.4 l 0.6,5.8 h 0.3 c 1.7,-2.7 6.1,-6.8 13.1,-6.8 8.7,0 15.2,5.7 15.2,18.2 V 101 H 242.9 V 77.6 c 0,-5.5 -1.9,-9.2 -6.7,-9.2 -3.6,0 -5.8,2.5 -6.7,4.9 -0.3,0.8 -0.5,2.1 -0.5,3.3 V 101 h -13.2 z"
       id="path8" />
    <path
       d="m 287.2,101.1 -0.8,-4.2 h -0.3 c -2.8,3.4 -7.1,5.2 -12.1,5.2 -8.6,0 -13.7,-6.2 -13.7,-13 0,-11 9.9,-16.3 24.9,-16.2 v -0.6 c 0,-2.3 -1.2,-5.5 -7.7,-5.5 -4.3,0 -8.9,1.5 -11.7,3.2 l -2.4,-8.5 c 2.9,-1.6 8.8,-3.7 16.5,-3.7 14.1,0 18.6,8.3 18.6,18.3 v 14.7 c 0,4.1 0.2,8 0.6,10.3 z m -1.5,-20 c -6.9,-0.1 -12.3,1.6 -12.3,6.7 0,3.4 2.3,5 5.2,5 3.3,0 6,-2.2 6.8,-4.9 0.2,-0.7 0.3,-1.5 0.3,-2.3 z"
       id="path10" />
    <path
       d="m 305.4,72.7 c 0,-6.2 -0.2,-10.3 -0.3,-14 h 11.4 l 0.4,7.8 h 0.3 c 2.2,-6.2 7.4,-8.8 11.4,-8.8 1.2,0 1.8,0 2.8,0.2 v 12.4 c -1,-0.2 -2.1,-0.3 -3.6,-0.3 -4.9,0 -8.1,2.6 -9,6.7 -0.2,0.9 -0.3,1.9 -0.3,2.9 v 21.5 H 305.3 V 72.7 Z"
       id="path12" />
    <path
       d="m 367.6,99.5 c -2,1 -6.4,2.4 -12,2.4 -12.7,0 -20.9,-8.6 -20.9,-21.4 0,-12.9 8.8,-22.3 22.5,-22.3 4.5,0 8.5,1.1 10.6,2.2 l -1.7,5.9 c -1.8,-1 -4.7,-2 -8.8,-2 -9.6,0 -14.8,7.1 -14.8,15.9 0,9.7 6.2,15.7 14.6,15.7 4.3,0 7.2,-1.1 9.4,-2.1 z"
       id="path14" />
    <path
       d="m 373,39.6 h 7.6 v 61.5 H 373 Z"
       id="path16" />
    <path
       d="m 428,79.8 c 0,15.5 -10.7,22.3 -20.9,22.3 -11.4,0 -20.1,-8.3 -20.1,-21.6 0,-14 9.2,-22.3 20.8,-22.3 12,0 20.2,8.7 20.2,21.6 z m -33.3,0.4 c 0,9.2 5.3,16.1 12.7,16.1 7.3,0 12.7,-6.8 12.7,-16.3 0,-7.1 -3.6,-16.1 -12.6,-16.1 -8.9,0 -12.8,8.3 -12.8,16.3 z"
       id="path18" />
    <path
       d="m 469.2,89.7 c 0,4.3 0.1,8.1 0.3,11.4 h -6.8 l -0.4,-6.8 h -0.2 c -2,3.4 -6.4,7.8 -13.9,7.8 -6.6,0 -14.5,-3.6 -14.5,-18.4 V 59.1 h 7.6 v 23.2 c 0,8 2.4,13.3 9.4,13.3 5.1,0 8.7,-3.6 10.1,-6.9 0.4,-1.1 0.7,-2.5 0.7,-3.9 V 59.1 h 7.6 v 30.6 z"
       id="path20" />
    <path
       d="m 514.6,39.6 v 50.7 c 0,3.7 0.1,8 0.3,10.8 h -6.8 l -0.3,-7.3 h -0.2 c -2.3,4.7 -7.5,8.2 -14.3,8.2 -10.1,0 -17.9,-8.6 -17.9,-21.3 -0.1,-14 8.6,-22.5 18.8,-22.5 6.4,0 10.7,3 12.7,6.4 h 0.2 v -25 z M 507,76.2 c 0,-1 -0.1,-2.3 -0.3,-3.2 -1.1,-4.9 -5.3,-8.8 -11,-8.8 -7.9,0 -12.6,6.9 -12.6,16.2 0,8.5 4.2,15.5 12.4,15.5 5.1,0 9.8,-3.4 11.2,-9.1 0.3,-1 0.3,-2.1 0.3,-3.3 z"
       id="path22" />
  </g>
  <path
     d="m111.3 56.9c-3.6-4.4-8.5-7.7-14-9.4 0-.1 0-.2 0-.3 0-16.1-13-29.2-29.1-29.2s-29.2 13.1-29.2 29.2v.4c-11.8 3.7-20.4 14.8-20.4 27.8 0 16.1 13.1 29.2 29.2 29.2 7.8 0 15.1-3 20.5-8.4 5.3 5.2 12.5 8.4 20.5 8.4 16.1 0 29.2-13.1 29.2-29.2-.1-6.7-2.4-13.3-6.7-18.5zm-22.6 40.3c-12 0-21.8-9.8-21.8-21.8 0-2-1.6-3.7-3.7-3.7-2 0-3.7 1.6-3.7 3.7 0 5.5 1.5 10.6 4.1 14.9-4.1 4.4-9.8 6.9-15.9 6.9-12 0-21.8-9.8-21.8-21.8s9.8-21.8 21.8-21.8c2.6 0 5.1.5 7.5 1.3h.1c.8.3 2 .8 2.4 1.1 1.5 1.3 3.9 1.1 5.2-.4s1.1-3.9-.4-5.2c-1.6-1.4-4.1-2.3-4.7-2.5-3.2-1.2-6.6-1.8-10-1.8-.5 0-.9 0-1.4 0 .5-11.6 10.1-20.9 21.8-20.9 12 0 21.8 9.8 21.8 21.8 0 7-3.4 13.7-9.2 17.8-1.7 1.2-2 3.5-.9 5.1.7 1 1.8 1.5 3 1.5.7 0 1.5-.2 2.1-.7 5.5-3.9 9.4-9.6 11.2-16 8.4 3.1 14.3 11.3 14.3 20.5.1 12.2-9.7 22-21.8 22z"
     fill="#f3702a"
     id="path26" />
</svg>
