<svg data-name="Layer 1" xmlns="http://www.w3.org/2000/svg" viewBox="0 0 64 64"><circle cx="32" cy="32" r="31" transform="rotate(-45 32.002 31.994)" fill="#be4040"/><path d="M53.92 10.08a31 31 0 010 43.84L10.08 10.08a31 31 0 0143.84 0z" fill="#b72b2b"/><path d="M11.65 37.33a6.35 6.35 0 001 .62 8.12 8.12 0 002.29.74 6.83 6.83 0 001.12.1 5 5 0 003.1-.8 2.74 2.74 0 001-2.3 2.85 2.85 0 00-1-2.27 7.81 7.81 0 00-1.28-.93q-.77-.46-1.83-1t-2-1.2a7.27 7.27 0 01-1.36-1.16A3.91 3.91 0 0112 27.8a4.6 4.6 0 01-.25-1.56 4.12 4.12 0 01.47-2 4.62 4.62 0 011.27-1.49 5.86 5.86 0 011.87-.95 7.73 7.73 0 012.29-.33 9.45 9.45 0 013.59.6V24a7.46 7.46 0 00-3.81-1 5.78 5.78 0 00-1.53.2 4 4 0 00-1.26.58 2.79 2.79 0 00-.85.95 2.69 2.69 0 00-.31 1.31 3.26 3.26 0 00.21 1.22 2.93 2.93 0 00.67 1 6.37 6.37 0 001.22.91q.75.45 1.85 1a22.1 22.1 0 012 1.19 7.79 7.79 0 011.42 1.21 4.46 4.46 0 01.84 1.33 4.24 4.24 0 01.31 1.59 4.72 4.72 0 01-.44 2.1 4.09 4.09 0 01-1.24 1.5 5.68 5.68 0 01-1.9.9 9.1 9.1 0 01-2.42.3 9 9 0 01-1-.07 11.91 11.91 0 01-1.21-.2 11.32 11.32 0 01-1.16-.32 4.23 4.23 0 01-.89-.4zM33 40.3a8.79 8.79 0 01-3.5-.67 7.7 7.7 0 01-2.68-1.89 8.42 8.42 0 01-1.71-2.91 11.08 11.08 0 01-.6-3.74 12 12 0 01.62-4 8.66 8.66 0 011.76-3 7.69 7.69 0 012.77-1.94 9.46 9.46 0 013.66-.68 8.38 8.38 0 013.38.67A7.61 7.61 0 0139.34 24 8.56 8.56 0 0141 26.93a10.93 10.93 0 01.6 3.71 11.58 11.58 0 01-1 5.08A7.82 7.82 0 0137.72 39l5 3.42h-3.04L36 39.83a9.09 9.09 0 01-1.43.35 9.84 9.84 0 01-1.57.12zm.15-17.3a6.59 6.59 0 00-2.77.58 6.35 6.35 0 00-2.17 1.62 7.5 7.5 0 00-1.42 2.49 9.68 9.68 0 00-.51 3.22 10.14 10.14 0 00.48 3.22 7.33 7.33 0 001.36 2.48 6 6 0 002.11 1.59 6.64 6.64 0 002.76.56 7.32 7.32 0 002.86-.53A5.89 5.89 0 0038 36.7a7 7 0 001.38-2.48 10.58 10.58 0 00.48-3.32 10.87 10.87 0 00-.47-3.33 7 7 0 00-1.35-2.47 5.79 5.79 0 00-2.12-1.54 7 7 0 00-2.77-.56zm12.01 17V21.79h1.69v16.67h7.31V40z" fill="#fff"/></svg>