<?xml version="1.0" encoding="UTF-8" standalone="no"?>
<svg
   xmlns:dc="http://purl.org/dc/elements/1.1/"
   xmlns:cc="http://creativecommons.org/ns#"
   xmlns:rdf="http://www.w3.org/1999/02/22-rdf-syntax-ns#"
   xmlns:svg="http://www.w3.org/2000/svg"
   xmlns="http://www.w3.org/2000/svg"
   xmlns:sodipodi="http://sodipodi.sourceforge.net/DTD/sodipodi-0.dtd"
   xmlns:inkscape="http://www.inkscape.org/namespaces/inkscape"
   version="1.1"
   x="0px"
   y="0px"
   viewBox="0 0 570 162"
   enable-background="new 0 0 570 162"
   xml:space="preserve"
   id="svg2"
   inkscape:version="1.0.1 (3bc2e813f5, 2020-09-07)"
   sodipodi:docname="codingame.svg"><metadata
     id="metadata42"><rdf:RDF><cc:Work
         rdf:about=""><dc:format>image/svg+xml</dc:format><dc:type
           rdf:resource="http://purl.org/dc/dcmitype/StillImage" /><dc:title /></cc:Work></rdf:RDF></metadata><defs
     id="defs40" /><sodipodi:namedview
     pagecolor="#ffffff"
     bordercolor="#666666"
     borderopacity="1"
     objecttolerance="10"
     gridtolerance="10"
     guidetolerance="10"
     inkscape:pageopacity="0"
     inkscape:pageshadow="2"
     inkscape:window-width="2560"
     inkscape:window-height="1377"
     id="namedview38"
     showgrid="true"
     inkscape:zoom="2.7138111"
     inkscape:cx="254.94267"
     inkscape:cy="129.32434"
     inkscape:window-x="-8"
     inkscape:window-y="-8"
     inkscape:window-maximized="1"
     inkscape:current-layer="svg2"
     inkscape:document-rotation="0"><inkscape:grid
       type="xygrid"
       id="grid26" /></sodipodi:namedview><g
     inkscape:groupmode="layer"
     id="layer1"
     inkscape:label="Layer 1"><rect
       style="fill:#20252a;fill-opacity:1;fill-rule:evenodd;stroke:#000000;stroke-width:0.86177653px;stroke-linecap:butt;stroke-linejoin:miter;stroke-opacity:1"
       id="rect3373"
       width="570"
       height="162"
       x="0"
       y="0" /></g><g
     id="Background"
     display="none"><rect
       display="inline"
       width="570"
       height="162"
       id="rect5" /></g><g
     id="Codingame_-_Logo_-_Full"
     transform="translate(-96)"><g
       id="g8"><path
         fill="none"
         d="m 426.9,96.5 c -0.8,4.5 4,3.9 4,3.9 0,0 5.1,0.2 6.9,-6.4 0.2,-1.1 0.5,-2.6 0.5,-2.6 0,0 -3.2,0.7 -6.2,0.9 -4.6,0.8 -5.2,3.8 -5.2,4.2 z"
         id="path10" /><path
         fill="none"
         d="m 214.4,80.4 v 0 c 0,0 -4.4,-0.3 -6.7,4.3 -2.8,6.4 -1.5,10.5 -1.5,10.9 0.9,3.6 4.9,3.5 4.9,3.5 v 0 c 0,0 4.4,0.3 6.7,-4.3 2.8,-6.4 1.5,-10.5 1.5,-10.9 -0.9,-3.7 -4.9,-3.5 -4.9,-3.5 z"
         id="path12" /><path
         fill="none"
         d="m 268.5,80.3 c -4.2,-0.1 -7.4,5 -8.3,9.8 -0.8,4.9 -0.1,8.8 5,8.8 3.1,0 6.7,-1.8 8.1,-8.8 0.6,-3.3 1.1,-9.8 -4.8,-9.8 z"
         id="path14" /><path
         fill="none"
         d="m 566.2,78.2 c -5.6,0 -6.8,7.3 -6.8,7.3 h 10.8 c 0,0 1.5,-7.3 -4,-7.3 z"
         id="path16" /><path
         fill="#ffffff"
         d="m 163.8,68 c 0,0 2.9,-1.6 6.6,-2.2 10.4,-1 15.5,3.2 15.5,3.2 l 2.9,-16.8 c 0,0 -14.8,-4.5 -28.5,0.3 -4,1.3 -16.3,6.2 -22.7,22 -1.5,3.6 -2.5,10.1 -2.6,11.8 -1.2,19.2 12.3,25.6 25.9,25.7 9.8,0.1 17.9,-2.6 18,-2.8 l 2.8,-16 c 0,0 -7.6,3.7 -14.3,3.4 -6.7,-0.3 -9.7,-3.3 -11.3,-5.6 -1.6,-2.3 -2.2,-7.8 -0.2,-13.8 2,-5.9 6.9,-8.8 7.9,-9.2 z"
         id="path18" /><path
         fill="#ffffff"
         d="m 216.6,67.4 c 0,0 -24.1,-1.2 -28.6,22.1 -1.8,9.8 1.3,22.5 20.8,22.5 19.5,0 27,-12.7 28.7,-22.5 3.6,-23.2 -20.9,-22.1 -20.9,-22.1 z m 1.2,27.3 c -2.4,4.7 -6.7,4.3 -6.7,4.3 v 0 c 0,0 -4.1,0.1 -4.9,-3.5 -0.1,-0.4 -1.3,-4.5 1.5,-10.9 2.4,-4.7 6.7,-4.3 6.7,-4.3 v 0 c 0,0 4.1,-0.1 4.9,3.5 0.1,0.4 1.4,4.5 -1.5,10.9 z"
         id="path20" /><path
         fill="#ffffff"
         d="m 280,48 -4.3,24.5 v 0 c -2.1,-3.6 -5.7,-5.6 -10.5,-5.6 -10,0 -20.6,9 -23.3,24.6 -2.2,12.5 3.7,20.6 14.5,20.6 5.9,0 10.3,-2.4 13.5,-6.2 v 0 l -0.9,5 h 17.8 l 10.9,-63 H 280 Z m -6.7,42.2 c -1.4,7 -5,8.8 -8.1,8.8 -5.1,-0.1 -5.9,-4 -5,-8.8 0.8,-4.9 4.1,-9.9 8.3,-9.8 5.9,-0.1 5.4,6.4 4.8,9.8 z"
         id="path22" /><path
         fill="#ffffff"
         d="m 341.4,68.9 c 0,0 -5.3,-3.6 -14.3,0 -3.9,1.5 -7.7,6.3 -7.7,6.3 l 1.2,-6.9 H 302.8 L 297.5,99 h 17.8 l 2,-11.8 0.1,-0.4 c 0.3,-1.5 1.6,-6.5 6.3,-6.5 5.4,0 3.7,6.9 3.7,6.9 L 323.3,111 H 341 c 0,0 3.9,-22.3 4.9,-28 1.8,-10.7 -4.5,-14.1 -4.5,-14.1 z"
         id="path24" /><ellipse
         fill="#ffffff"
         cx="313.29999"
         cy="54.799999"
         rx="8.1999998"
         ry="7.1999998"
         id="ellipse26" /><path
         fill="#ffd200"
         d="m 389.7,65 c 12.4,0 16.8,3.3 16.8,3.3 0,0 2.6,-14.8 2.7,-15.8 -8.3,-2.1 -48,-9.8 -57,30 -5.4,31.2 27.5,29.5 27.5,29.5 0,0 13,0 24.1,-5 0.2,-1 3.9,-22.4 3.9,-22.4 l -18.2,-0.1 -2.1,12.3 c 0,0 -11.3,3 -15.4,-5.5 -1.6,-3.1 -0.5,-9.2 -0.5,-9.2 0,0 2.4,-17.1 18.2,-17.1 z"
         id="path28" /><path
         fill="#ffd200"
         d="m 440.3,67.3 c -9.8,-0.5 -20.4,3.3 -20.4,3.3 l -2.1,11.8 c 0,0 7.8,-4.3 15.7,-4.3 7.8,0 6.2,4.9 6.2,4.9 0,0 -11.5,1.3 -13.3,1.5 -14.3,2.6 -15.4,14.1 -15.4,14.1 0,0 -2.7,13.4 10.7,13.4 9.2,0 14.5,-7.5 14.5,-7.5 L 435,111 h 16.2 l 4.3,-24.8 c 0,0 5.5,-18.8 -15.2,-18.9 z m -2.5,26.8 c -1.8,6.5 -6.9,6.4 -6.9,6.4 0,0 -4.8,0.6 -4,-3.9 0.1,-0.4 0.7,-3.5 5.3,-4.2 2.9,-0.3 6.2,-0.9 6.2,-0.9 0,0 -0.4,1.5 -0.6,2.6 z"
         id="path30" /><path
         fill="#ffd200"
         d="m 526.3,67.3 c -10.5,0 -15.7,7.5 -15.7,7.5 0,0 -2,-7.5 -11.7,-7.5 -9.7,0 -15.5,7.7 -15.5,7.7 l 1.1,-6.6 h -17.8 l -7.4,42.5 h 17.8 l 4.3,-24.6 c 0,0 1.5,-6 6.2,-6 4.7,0 3.6,6.1 3.6,6.1 L 487,111 h 17.9 l 4.3,-24.5 c 0,0 1.2,-6.2 6.2,-6.2 5,0 3.6,6.3 3.6,6.3 l -4.3,24.3 h 18 l 4.9,-28.5 c -0.1,0.1 2.6,-15.1 -11.3,-15.1 z"
         id="path32" /><path
         fill="#ffd200"
         d="m 610.9,52.6 c -7.1,-0.7 -9.3,2.9 -10.5,4.6 -1.6,3.5 -3.5,6.6 -3.5,6.6 0,0 -5.3,6.1 -11.7,6.3 -7.6,0 -7.9,-2.8 -15.7,-2.7 -16.6,0 -26.2,11.7 -28.1,22.5 -3.9,22.3 17.1,22.4 19,22.4 11.6,0 17,-2.8 17,-2.8 l 1.8,-11 c 0,0 -5.3,2.4 -12.9,2.4 -7.6,0 -8.5,-6 -8.5,-6 h 27.4 c 0,0 1.1,-7.3 1.2,-8.1 0.8,-3.8 0.4,-6 0.6,-7.2 0.2,-1.1 2.3,-10.7 19.9,-12.9 10.1,-1.8 9.9,-7.4 9.9,-7.8 0,-0.4 0,-5.1 -5.9,-6.3 z m -40.7,32.9 h -10.8 c 0,0 1.3,-7.3 6.8,-7.3 5.5,0 4,7.3 4,7.3 z"
         id="path34" /><circle
         fill="#ffd200"
         cx="623.40002"
         cy="50.599998"
         r="3.7"
         id="circle36" /></g></g></svg>
